<svg id="Layer_1" data-name="Layer 1" xmlns="http://www.w3.org/2000/svg" xmlns:xlink="http://www.w3.org/1999/xlink" viewBox="0 0 1000 1000"><defs><style>.cls-1{fill:none;}.cls-2{isolation:isolate;}.cls-3{clip-path:url(#clip-path);}.cls-4{fill:#15621c;}.cls-5{fill:#16661d;}.cls-6{fill:#16691e;}.cls-7{clip-path:url(#clip-path-2);}.cls-8{fill:#154a1b;}.cls-9{fill:#14471a;}.cls-10{fill:#134519;}.cls-11{clip-path:url(#clip-path-3);}.cls-12{clip-path:url(#clip-path-4);}.cls-13{clip-path:url(#clip-path-5);}.cls-14{clip-path:url(#clip-path-6);}.cls-15{fill:#25af32;}.cls-16{clip-path:url(#clip-path-7);}.cls-17{clip-path:url(#clip-path-8);}.cls-18{fill:#227b2e;}</style><clipPath id="clip-path"><path class="cls-1" d="M633.58,289.94h-34.2c10.44-23.94,21.51-47.6,31-71.94,4.28-11,10.67-15.69,21.1-18.6,72.15-20.09,143.88-41.7,211.44-76.25,24.85-12.71,48.35-27.75,70.46-48.49h34.2C945.5,95.4,922,110.44,897.15,123.15c-67.57,34.55-139.29,56.16-211.44,76.25-10.44,2.91-16.82,7.6-21.11,18.6C655.09,242.34,644,266,633.58,289.94Z"/></clipPath><clipPath id="clip-path-2"><path class="cls-1" d="M460.82,861h-34.2C564.7,861,687.26,774.83,742,633.5c1.7-4.4,3-8.86,7.25-11.8,27.92-19.21,50.91-44.23,72.71-71.42h34.21c-21.81,27.19-44.79,52.21-72.72,71.42-4.25,2.94-5.55,7.4-7.25,11.8C721.46,774.83,598.9,861,460.82,861Z"/></clipPath><clipPath id="clip-path-3"><path class="cls-1" d="M637.52,189h-34.2c-5,0-7.7-2.41-10.56-4.09-53.57-31.45-110.8-46.37-166.89-46.37h34.2c56.09,0,113.32,14.92,166.89,46.37C629.82,186.61,632.51,189,637.52,189Z"/></clipPath><clipPath id="clip-path-4"><path class="cls-1" d="M419.08,367.66h-34.2c3.94,0,4.73-4.1,5.95-6.39,20.22-38.06,47.49-69.18,80.81-94.65,38.8-29.68,83.49-42.82,129.17-53.46a12.91,12.91,0,0,1,2.79-.37h34.2a13,13,0,0,0-2.79.37c-45.67,10.64-90.37,23.78-129.17,53.46-33.31,25.48-60.59,56.59-80.81,94.65C423.81,363.56,423,367.66,419.08,367.66Z"/></clipPath><clipPath id="clip-path-5"><path class="cls-1" d="M278.75,471.92h-34.2c32.67-81.23,66.57-161.25,151.3-202.84h34.2C345.32,310.67,311.42,390.69,278.75,471.92Z"/></clipPath><clipPath id="clip-path-6"><path class="cls-1" d="M297,788.58h-34.2a7.68,7.68,0,0,1-4.73-1.64c-10.8-8-21.58-16.09-32.26-24.31-6.41-4.92-1.11-9.49,1.07-13.52a850.67,850.67,0,0,1,84.72-127.75c88.95-110.71,196.14-195.82,319.81-257.81,3.34-1.67,6.72-3.32,10-5.09.6-.33,1-1.21,3.18-4.13h34.2c-2.22,2.92-2.57,3.8-3.18,4.13-3.31,1.77-6.68,3.42-10,5.09-123.66,62-230.86,147.1-319.8,257.81a850.73,850.73,0,0,0-84.73,127.75c-2.18,4-7.47,8.6-1.07,13.52,10.68,8.22,21.46,16.27,32.26,24.31A7.7,7.7,0,0,0,297,788.58Z"/></clipPath><clipPath id="clip-path-7"><path class="cls-1" d="M205.07,694H170.86c-5.4-116.63,13.65-225.07,85.56-318.49h34.21C218.72,468.89,199.66,577.33,205.07,694Z"/></clipPath><clipPath id="clip-path-8"><path class="cls-1" d="M459.73,926h-34.2c-142,0-276.21-79.61-348.23-216.82C-17.63,528.3,22.49,300.84,171.8,170.79,247.39,105,337.43,74,425.88,74h34.2C371.63,74,281.59,105,206,170.79,56.69,300.84,16.57,528.3,111.5,709.15,183.52,846.36,317.68,926,459.73,926Z"/></clipPath></defs><g class="cls-2"><g class="cls-2"><g class="cls-3"><g class="cls-2"><path class="cls-4" d="M633.58,289.94h-34.2c10.44-23.94,21.51-47.6,31-71.94a30.33,30.33,0,0,1,7.39-11.58H672A30.23,30.23,0,0,0,664.6,218c-9.51,24.34-20.58,48-31,71.94"/><path class="cls-5" d="M672,206.42H637.79a27.28,27.28,0,0,1,8.4-5.22H680.4a27,27,0,0,0-8.4,5.22"/><path class="cls-6" d="M680.4,201.2H646.19a47.15,47.15,0,0,1,5.31-1.8c53.31-14.84,106.39-30.52,157.72-51.63h34.2C792.09,168.88,739,184.56,685.71,199.4a46.47,46.47,0,0,0-5.31,1.8"/><path class="cls-5" d="M843.42,147.77h-34.2c18.15-7.46,36.08-15.6,53.72-24.62,24.61-12.59,47.91-27.46,69.83-47.9H967c-21.92,20.44-45.21,35.31-69.82,47.9-17.65,9-35.58,17.16-53.73,24.62"/><path class="cls-4" d="M967,75.25h-34.2l.63-.59h34.2l-.63.59"/></g></g></g><g class="cls-2"><g class="cls-7"><g class="cls-2"><path class="cls-8" d="M460.82,861h-34.2a322.5,322.5,0,0,0,123-24.16h34.2a322.5,322.5,0,0,1-123,24.16"/><path class="cls-9" d="M583.8,836.82H549.6a330,330,0,0,0,99.62-64.15h34.21a330.07,330.07,0,0,1-99.63,64.15"/><path class="cls-10" d="M683.43,772.67H649.22C688.5,736.05,720.48,689,742,633.5c1.48-3.83,2.65-7.71,5.73-10.58h34.21c-3.09,2.87-4.26,6.75-5.74,10.58C754.68,689,722.7,736.05,683.43,772.67"/><path class="cls-9" d="M781.92,622.92H747.71a13.3,13.3,0,0,1,1.52-1.22,257.71,257.71,0,0,0,29.59-23.93H813a257,257,0,0,1-29.6,23.93,13.17,13.17,0,0,0-1.51,1.22"/><path class="cls-10" d="M813,597.77H778.82c15.45-14.4,29.52-30.52,43.12-47.49h34.21c-13.61,17-27.68,33.09-43.12,47.49"/></g></g></g><g class="cls-2"><g class="cls-11"><g class="cls-2"><path class="cls-10" d="M637.52,189h-34.2c-5,0-7.7-2.41-10.56-4.09-53.57-31.45-110.8-46.37-166.89-46.37h34.2c56.09,0,113.32,14.92,166.89,46.37,2.86,1.68,5.55,4.09,10.56,4.09"/></g></g></g><g class="cls-2"><g class="cls-12"><g class="cls-2"><path class="cls-6" d="M419.08,367.66h-34.2a4.48,4.48,0,0,0,1.75-.33h34.2a4.48,4.48,0,0,1-1.75.33"/><path class="cls-5" d="M420.83,367.33h-34.2a4.16,4.16,0,0,0,1.28-.83h34.21a4.2,4.2,0,0,1-1.29.83"/><path class="cls-4" d="M422.12,366.5H387.91c1.49-1.39,2.11-3.71,2.92-5.23a284.27,284.27,0,0,1,57.76-75.2h34.2A284.27,284.27,0,0,0,425,361.27c-.81,1.52-1.43,3.84-2.91,5.23"/><path class="cls-5" d="M482.79,286.07h-34.2q11-10.24,23.05-19.45a238.89,238.89,0,0,1,55-31.09h34.2a239.3,239.3,0,0,0-55,31.09q-12.06,9.21-23,19.45"/><path class="cls-6" d="M560.84,235.53h-34.2c23.87-9.81,48.87-16.47,74.17-22.37a12.91,12.91,0,0,1,2.79-.37h34.2a13,13,0,0,0-2.79.37c-25.3,5.9-50.3,12.56-74.17,22.37"/></g></g></g><g class="cls-2"><g class="cls-13"><g class="cls-2"><path class="cls-4" d="M278.75,471.92h-34.2c24.58-61.11,49.85-121.53,96.94-165.43h34.2c-47.09,43.9-72.36,104.32-96.94,165.43"/><path class="cls-5" d="M375.69,306.49h-34.2a223.34,223.34,0,0,1,54.36-37.41h34.2a223.53,223.53,0,0,0-54.36,37.41"/></g></g></g><g class="cls-2"><g class="cls-14"><g class="cls-2"><path class="cls-4" d="M297,788.58h-34.2a7.68,7.68,0,0,1-4.73-1.64c-10.8-8-21.58-16.09-32.26-24.31-6.41-4.92-1.11-9.49,1.07-13.52a850.67,850.67,0,0,1,84.72-127.75A967.17,967.17,0,0,1,406.1,519.55h34.21a965.05,965.05,0,0,0-94.47,101.81,850.73,850.73,0,0,0-84.73,127.75c-2.18,4-7.47,8.6-1.07,13.52,10.68,8.22,21.46,16.27,32.26,24.31a7.7,7.7,0,0,0,4.73,1.64"/><path class="cls-5" d="M440.31,519.55H406.1c67.41-62.82,142.69-114.57,225.34-156,3.34-1.67,6.72-3.32,10-5.09a1.57,1.57,0,0,0,.28-.21H676a1.28,1.28,0,0,1-.28.21c-3.31,1.77-6.68,3.42-10,5.09C583,405,507.71,456.73,440.31,519.55"/><path class="cls-4" d="M676,358.25h-34.2c.49-.45,1-1.46,2.9-3.92h34.2c-1.87,2.46-2.41,3.47-2.9,3.92"/></g></g></g><path class="cls-15" d="M967.6,74.66c4.54,31.13,4,60.36,2.5,89.45-4.12,78.1-19.5,153.58-48.28,225.78a635.42,635.42,0,0,1-66.6,124.25c-3.93,5.75-8.56,8.53-15.15,9.75-32.42,6-64.76,12.51-97.29,21.07l80.08,9.82c-8.73,12.22-18.19,21-27.76,29.52C748.43,625.88,693.55,646.78,634,655.12c-33.06,4.62-66.27,8-99.73,13.58l111.78,13.37c-16.84,10.54-32.05,16.87-47.18,23.28-63.5,26.84-130.15,41-196.81,55.16-33.92,7.22-67.86,14.42-100.48,27.06a12.79,12.79,0,0,1-4.57,1,7.7,7.7,0,0,1-4.73-1.64c-10.8-8-21.58-16.09-32.26-24.31-6.4-4.92-1.11-9.49,1.07-13.52a850.73,850.73,0,0,1,84.73-127.75C434.78,510.65,542,425.54,665.64,363.55c3.35-1.67,6.72-3.32,10-5.09.61-.33,1-1.21,3.18-4.13-25.29,2.92-47.25,10.31-69,18.26-99.91,36.55-185,99.06-264,172a1234.66,1234.66,0,0,0-131.8,142.3c-2,2.56-3.46,6-9,7.08-5.41-116.63,13.65-225.07,85.56-318.49-2,16-3.8,32.06-5.9,48s-4.46,32-6,48.4c32.67-81.23,66.57-161.25,151.3-202.84-2.31,18.48-4.16,33.89-6.18,49.28-1.77,13.44-3.6,26.89-5.67,40.28-.5,3.22-3.76,7.25.41,9,4.36.34,5.15-4,6.42-6.37,20.22-38.06,47.5-69.17,80.81-94.65,38.8-29.68,83.5-42.82,129.17-53.46a13,13,0,0,1,2.79-.37c4.87,0,3.58,4.73,3,8.91-3.09,22.49-6.17,45-7.23,68.24C644,266,655.09,242.34,664.6,218c4.29-11,10.67-15.69,21.11-18.6,72.15-20.09,143.87-41.7,211.44-76.25C922,110.44,945.5,95.4,967.6,74.66Z"/><g class="cls-2"><g class="cls-16"><g class="cls-2"><path class="cls-4" d="M205.07,694H170.86c-5.4-116.63,13.65-225.07,85.56-318.49h34.21c-71.91,93.42-91,201.86-85.56,318.49"/></g></g></g><g class="cls-2"><g class="cls-17"><g class="cls-2"><path class="cls-10" d="M459.73,926h-34.2c-142,0-276.21-79.61-348.23-216.82-92.72-176.63-56.61-397.71,84.22-529.09h34.21C54.89,311.44,18.79,532.52,111.5,709.15,183.52,846.36,317.68,926,459.73,926"/><path class="cls-9" d="M195.73,180.06H161.52q5.05-4.71,10.28-9.27a397.14,397.14,0,0,1,109.81-68.21h34.2A397.14,397.14,0,0,0,206,170.79q-5.22,4.56-10.27,9.27"/><path class="cls-8" d="M315.81,102.58h-34.2A378.79,378.79,0,0,1,425.88,74h34.2a378.83,378.83,0,0,0-144.27,28.55"/></g></g></g><path class="cls-18" d="M460.08,74a382.19,382.19,0,0,1,251.64,94.71C686,175.86,662.15,182.47,638.34,189c-5.55.28-8.36-2.3-11.38-4.07-53.57-31.45-110.8-46.37-166.89-46.37-126,0-246.28,75.27-306.46,207.35C57.17,557.55,183,816.84,401,855.65a341.64,341.64,0,0,0,59.8,5.33c138.08,0,260.64-86.15,315.36-227.48,1.7-4.4,3-8.86,7.25-11.8,27.93-19.21,50.91-44.23,72.72-71.42C852.2,663.11,769.07,834.91,598.8,900a388.83,388.83,0,0,1-139.07,26c-142,0-276.21-79.61-348.23-216.82C16.57,528.3,56.69,300.84,206,170.79,281.59,105,371.63,74,460.08,74Z"/></g></svg>