<svg id="Layer_1" data-name="Layer 1" xmlns="http://www.w3.org/2000/svg" viewBox="0 0 816.33 717.44"><defs><style>.cls-1{fill:#28bc36;}.cls-2{fill:#258431;}</style></defs><path class="cls-1" d="M554.35,236.05c-22.66,2.46-42.34,8.68-61.8,15.37C403,282.2,326.77,334.85,256,396.26A1068.59,1068.59,0,0,0,137.85,516.1c-1.8,2.15-3.1,5-8.09,6-4.84-98.22,12.23-189.54,76.68-268.21-1.75,13.49-3.4,27-5.28,40.47s-4,26.92-5.36,40.75c29.27-68.41,59.65-135.79,135.59-170.81-2.07,15.56-3.73,28.53-5.54,41.49-1.58,11.33-3.23,22.65-5.09,33.93-.44,2.71-3.37,6.09.37,7.57s4.45-3.05,5.76-5.36c18.12-32,42.56-58.25,72.42-79.71,34.77-25,74.82-36.05,115.76-45,7.24-1.58,5.78,3.1,5.19,7.18-2.77,18.94-5.53,37.89-6.47,57.47,9.35-20.16,19.27-40.08,27.79-60.58,3.85-9.27,9.56-13.21,18.92-15.66C625.16,88.65,689.43,70.46,750,41.36,772.25,30.66,793.31,18,813.12.53c4.07,26.21,3.61,50.83,2.24,75.33-3.69,65.77-17.48,129.33-43.27,190.13a526,526,0,0,1-59.67,104.64c-3.54,4.84-7.68,7.18-13.59,8.2-29.05,5.05-58,10.54-87.19,17.75l71.76,8.26c-7.81,10.3-16.29,17.7-24.86,24.87-41.84,35-91,52.62-144.37,59.63-29.62,3.9-59.38,6.75-89.37,11.44L525,512.05c-15.1,8.87-28.72,14.2-42.28,19.59-56.91,22.61-116.65,34.52-176.38,46.46-30.39,6.08-60.82,12.14-90,22.79-3.11,1.13-5.73,1.28-8.33-.53-9.68-6.77-19.34-13.56-28.91-20.47-5.74-4.15-1-8,1-11.39a714.21,714.21,0,0,1,75.93-107.58C335.63,367.69,431.69,296,542.51,243.82c3-1.42,6-2.8,9-4.3C552.05,239.24,552.36,238.51,554.35,236.05Z"/><path class="cls-2" d="M583.81,79.76c-23.09,6-44.42,11.56-65.77,17.06-4,1-7-1.67-10.19-3.43C352,7.38,161.59,68.23,83.65,229-2.77,407.18,110,625.54,305.37,658.21c144.81,24.23,280.19-51.1,336.21-187.07,1.53-3.71,2.68-7.46,6.49-9.93,25-16.19,45.63-37.26,65.16-60.15-3.53,95-78,239.7-230.61,294.51-167.91,60.31-351.21-7.64-436.71-160.72C-39.16,382.55-3.21,191,130.6,81.49,268.37-31.26,459.6-22.43,583.81,79.76Z"/></svg>