<?xml version="1.0" encoding="UTF-8"?>
<svg id="Layer_1" data-name="Layer 1" xmlns="http://www.w3.org/2000/svg" viewBox="0 0 1000 1000">
  <defs>
    <style>
      .cls-1 {
        fill: #258431;
      }

      .cls-2 {
        fill: #28bc36;
      }
    </style>
  </defs>
  <path class="cls-2" d="M646.18,377.33c-22.66,2.46-42.34,8.69-61.8,15.38-89.54,30.78-165.77,83.43-236.57,144.84-42.49,36.86-81.93,76.75-118.12,119.83-1.81,2.15-3.1,5.05-8.09,5.97-4.85-98.22,12.23-189.54,76.68-268.21-1.75,13.49-3.4,26.99-5.29,40.46-1.88,13.48-4,26.93-5.36,40.76,29.27-68.41,59.65-135.79,135.59-170.81-2.07,15.56-3.73,28.54-5.54,41.49-1.58,11.33-3.23,22.65-5.09,33.93-.45,2.71-3.37,6.09,.37,7.57,3.69,1.46,4.44-3.05,5.75-5.36,18.12-32.05,42.57-58.25,72.42-79.71,34.77-24.99,74.82-36.05,115.76-45.01,7.24-1.58,5.79,3.1,5.19,7.18-2.76,18.94-5.53,37.88-6.47,57.47,9.35-20.16,19.27-40.08,27.79-60.59,3.85-9.26,9.56-13.21,18.92-15.66,64.66-16.93,128.94-35.12,189.48-64.22,22.27-10.7,43.33-23.37,63.14-40.83,4.07,26.21,3.61,50.83,2.23,75.33-3.69,65.77-17.48,129.33-43.27,190.13-15.79,37.22-35.86,71.98-59.67,104.64-3.53,4.84-7.68,7.18-13.58,8.21-29.05,5.05-58.03,10.54-87.19,17.75,23.35,2.69,46.69,5.38,71.76,8.27-7.82,10.3-16.3,17.69-24.87,24.87-41.83,35.01-91.01,52.62-144.36,59.63-29.62,3.9-59.38,6.74-89.37,11.44,32.48,3.65,64.96,7.31,100.17,11.27-15.09,8.87-28.71,14.2-42.28,19.59-56.91,22.61-116.64,34.52-176.38,46.46-30.39,6.08-60.82,12.14-90.05,22.79-3.11,1.13-5.73,1.28-8.33-.53-9.68-6.77-19.34-13.55-28.91-20.47-5.74-4.15-.99-8,.96-11.39,22.02-38.17,47.29-74.08,75.93-107.58,79.71-93.23,175.78-164.91,286.59-217.1,3.01-1.42,6.03-2.8,8.99-4.3,.55-.28,.86-1.01,2.85-3.48Z"/>
  <path class="cls-1" d="M675.64,221.04c-23.08,6-44.42,11.56-65.76,17.06-4.06,1.04-7-1.67-10.19-3.43-155.87-86-346.26-25.16-424.2,135.56-86.43,178.23,26.35,396.59,221.71,429.27,144.81,24.22,280.19-51.11,336.21-187.07,1.53-3.71,2.68-7.47,6.5-9.94,25.02-16.19,45.63-37.26,65.16-60.15-3.53,95.01-78.03,239.69-230.62,294.51-167.91,60.31-351.2-7.64-436.7-160.71-85.07-152.31-49.12-343.85,84.69-453.37,137.76-112.75,329-103.92,453.2-1.73Z"/>
</svg>