<?xml version="1.0" encoding="UTF-8"?>
<svg id="Layer_1" data-name="Layer 1" xmlns="http://www.w3.org/2000/svg" viewBox="0 0 757.56 475.57">
  <defs>
    <style>
      .cls-1 {
        fill: #d4d39b;
      }

      .cls-2 {
        fill: #bdb88e;
      }

      .cls-3 {
        fill: #61552b;
      }

      .cls-4 {
        fill: #5e9a26;
      }

      .cls-5 {
        fill: #89b51f;
      }

      .cls-6 {
        fill: #88b51f;
      }

      .cls-7 {
        fill: #bdb98f;
      }

      .cls-8 {
        fill: #60532a;
      }

      .cls-9 {
        fill: #5f5229;
      }

      .cls-10 {
        fill: #62552c;
      }

      .cls-11 {
        fill: #e0dfa6;
      }

      .cls-12 {
        fill: #88b320;
      }

      .cls-13 {
        fill: #5f5228;
      }

      .cls-14 {
        fill: #63572d;
      }

      .cls-15 {
        fill: #5d9b25;
      }

      .cls-16 {
        fill: #cdca93;
      }

      .cls-17 {
        fill: #63562c;
      }

      .cls-18 {
        fill: #62562c;
      }

      .cls-19 {
        fill: #61542a;
      }

      .cls-20 {
        fill: #5d9c25;
      }

      .cls-21 {
        fill: #61542b;
      }

      .cls-22 {
        fill: #685c31;
      }
    </style>
  </defs>
  <path class="cls-11" d="M755.98,321.33c4.17,21.87,.38,41.96-14.61,58.86-31.22,35.2-73.77,49.92-116.92,62.95-62.49,18.87-126.72,26.07-191.75,30.38-104.11,6.91-206.23-3.67-306.17-31.76-40.84-11.48-81.06-27.86-110.5-61.53-14.92-17.06-18.44-37.09-14.56-58.88,17.82-33.84,48.38-51.74,82.05-65.95,36.36-15.35,73.72-27.04,112.94-32.47,16.18,7.89,33.98,12.61,48.21,24.4,5.05,17.77,1.57,35.95,2.54,53.92,.27,4.92,0,9.86,.38,14.79,.57,7.37,3.02,12.76,11.82,12.41,8.21-.33,9.4-6.04,10.07-12.39,1.71-16.27-2.38-32.9,3.03-48.95,13.04-9.05,22.72-.15,32.89,6.15,1.17,1.43,2.05,3.05,2.67,4.79,3.26,18.99,.97,38.17,1.66,57.27,.16,4.37-.02,8.75,1,13.06,1.48,6.19,6.29,6.95,11.43,6.93,5.76-.02,9.01-2.86,9.83-8.76,1.41-10.19-1.55-20.92,3.72-30.65,11.17-5.81,17.51,2.36,24.59,8.44,9.74,9.37,12.82,20.92,12.26,34.22-.53,12.58-.44,25.22,.14,37.83,.32,6.92,2.97,11.49,10.86,11.43,7.74-.06,10.63-4.46,10.98-11.42,.76-15.35,.1-30.71,.39-46.06,.14-7.63-.55-15.43,3.54-22.48,5.85-6.36,12.74-8.25,20.84-4.88,5.76,4.85,4.86,11.73,5.51,18.18,1.57,15.37,4.37,16.88,20.05,10.85,6.63-17.56,2.15-35.64,2.78-53.43,.23-6.55-.45-13.18,2.19-19.36,2.9-6.81,8.29-8.03,14.87-5.86,11.12,12.01,4.84,26.83,6.26,40.37,1.59,15.21,3.71,16.92,19.57,12.27,6.24-7.11,3.32-15.68,3.64-23.6,.46-11.42,.49-22.9,.05-34.32-.52-13.56,4.93-23.2,17.14-28.85,11.88-5.5,22.11-13.99,34.41-18.68,64.66,9.01,126.48,26.09,180.66,64.45,13.17,9.32,21.13,23.08,29.56,36.35Z"/>
  <path class="cls-20" d="M465.08,275.43c-10.64-2.66-12.94,2.62-13.06,12.17-.31,24.15,2.51,48.41-2.01,72.45-8.25-8.07-3.95-18.43-5.01-27.79-.66-5.86,.84-11.87-.99-18.25-9.65,.26-15.03,10.56-24.6,10.51-6.5,1.11-12.99,2.23-19.49,3.34-8.85,6.6-17.65,7.12-26.36-.2,1.68-9.52,9.43-5.59,14.58-6.85-16.98-8.2-17.99-10.27-11.16-26.92,7.29-17.76,11.57-36.37,16.23-55.34-12.6,2.94-14.79-4.74-13.27-14.15,2.71-16.84,1.58-33.76,2.39-50.63,1.05-21.92-5.09-43.41-3.29-65.3,.48-5.78-3.06-8.96-6.87-12.21-4.23-6.89-3.6-14.59-3.73-22.12-.28-16.21,.44-32.44-1.86-48.61-.87-6.16-1.75-13.18,5.97-16.66,12.37,32.24,19.81,66.19,33.98,97.81,4.51,3.6,5.02,8.86,3.58,13.46-5.66,18.14,.93,34.48,6.77,50.89,5.85,16.41,9.63,33.55,18.8,53.14,3.33-15.15,6.97-26.71,9.96-40.38-8,5.64-11.56,2.22-13.09-4.91-1.16-5.39-1.24-10.89-.91-16.32,2.3-37.08,.42-74.06-2.07-111.04-.34-5.07-1.71-11.38,5.94-13.2,4.86,14.22,9.73,28.44,14.59,42.66,8.99,4.51,10.17,13.65,12.9,21.84,7.53,22.55,13.36,45.71,23.42,68.11,3.13-5.1,2.71-10.31,5.35-15.86-10.55,5.07-12.81-1.24-13.6-8.91-1.01-9.8-.26-19.66-.52-29.49-.82-30.57,1.92-61.2-1.95-91.72-.63-5.01-1.65-11.4,6.11-13.03,21,63.22,41.99,126.45,63.02,189.66,1.2,3.61,2.71,7.13,4.07,10.69,2.03,3.67,2.39,7.17-1.02,10.29-11.51,8.28-22.76,16.98-36.46,21.55-10.32,3.44-13.56,10.73-13.75,21.37-.38,21.68,2.53,43.48-1.7,65.06-7.75-7.49-4.39-17.21-5.04-26.05-.48-6.44-.09-12.95-.09-19.43q0-18.93-17.89-11.19c-2.53,1.1-5.13,1.6-7.86,1.61Z"/>
  <path class="cls-6" d="M241.13,245.71c-16.78-2.48-30.64-11.65-45.06-19.57-3.87-2.69-11.21-3.05-7.36-10.94C209.99,143.55,231.27,71.89,252.61,0c4.87,2.18,5.29,5.33,5.31,8.69,5.26,28.4,7.1,57.17,8.42,85.94,.72,15.82,1.11,31.78-3.02,47.68,13.64-2.66,17.11,.13,14.01,12.03-5.69,21.89-11.74,43.71-15.68,55.29,8.34-28.18,20.28-66.16,27.01-105.51,8.51-.12,6.51-7.87,7.89-12.17,6.8-21.16,12.72-42.61,19.1-64.5,6.91,4.47,5.43,11.84,7.78,17.51,1.82,30.96,6.97,61.69,5.89,92.85-.38,10.9-.18,21.82-2.29,33.73,13.66-4.6,14.91,3.32,13.29,12.98-3.35,19.99-9.23,39.31-16.27,58.29-1.89,5.08-3.92,9.81-2.93,15.73,2.76,16.52,1.08,17.92-16.93,16.7-9.68-3.6-19.35-7.21-29.03-10.81-12.7-3.78-22.53-12.79-34.05-18.72Z"/>
  <path class="cls-6" d="M435.52,38.3c-6.66,10.8,1.65,21.09,1.11,31.87-1.64,32.53,2.72,65.12-.21,97.71-.47,5.18-.07,10.44-.07,16.07,8.27-1.46,7.47-11.12,15.82-11.34-3.03,20.88-8.87,40.74-16.91,60.96-13.36-41.62-40.27-79.71-28.72-126.89,7.74-25.78,15.47-51.55,23.24-77.46,5.16,1.58,4.98,5.61,5.74,9.09Z"/>
  <path class="cls-15" d="M304.2,275.23c3.29-3.9,8.09-2.49,12.2-3.55,4.05-1.04,5.94-5.33,2.99-7.13-12.25-7.47-3.32-14.11-.48-21.64,8.53-22.63,15.16-45.79,18.76-70.66-8.29,1.56-7.39,11.3-16.6,11.41,.96-17.12,3.21-34.1,3.68-51.13,.65-24.11-5.34-47.71-3.67-71.75,.37-5.33-1.43-11,2.36-15.83,4.82,14.55,9.64,29.11,14.47,43.66,6.18,1.73,7.67,7.23,9.25,12.25,5,15.88,11.34,31.27,16.55,47.08-2.48,24.52-12.68,47.03-18.54,70.69-3.64,14.7-8.55,29.13-12.26,43.88-1.68,6.68-3.24,13.96-10.51,17.54-6.62,1.04-12.66-.07-17.71-4.8l-.49-.02Z"/>
  <path class="cls-5" d="M481.81,11.88c-7.05,11.29,1.33,22.2,.99,33.5-1.08,36.04-.4,72.13-.4,108.3,8.96,.96,8.3-8.57,16.3-11.49-3.33,14.92-6.34,28.42-9.35,41.93-1.3,.14-2.6,.29-3.9,.43-11.78-34.53-23.56-69.06-35.33-103.59,8.64-26.68,17.28-53.36,26.01-80.35,5.49,2.1,5.07,6.96,5.69,11.28Z"/>
  <path class="cls-4" d="M288.67,104.11c6.53,5.95,3.75,13.51,1.94,19.7-10.72,36.59-22.16,72.98-33.49,109.88-8.5-3.26-8.32-7.22-3.91-14.75,13.59-23.22,17.34-49.36,22.18-76.31-8.6,1.72-7.73,11.5-15.48,11.36-4.7-10.88,1.85-21.13,1.9-31.73,.19-36.02-2.35-71.86-5.91-107.66-.19-1.88,1.32-3.93,2.03-5.91,10.77,31.64,22.35,63.01,30.74,95.42Z"/>
  <path class="cls-12" d="M360.72,146.91c-12.12-17.67-13.91-39.38-22.82-58.3,11.8-20.43,14.29-44.02,22.32-65.73,2.74-7.41,3.07-15.71,7.95-22.53,3.63,2.09,3.77,5.42,4.38,8.52,2.15,29.51-1.54,59.33,4.47,88.65,3.94,16.87-3.95,40.79-16.3,49.4Z"/>
  <path class="cls-2" d="M547.88,222.51c.34-3.43,.68-6.86,1.02-10.29,61.83,11.36,122.63,25.77,174.69,63.66,15.61,11.36,28.61,25.31,32.39,45.45-.12,.53-.08,1.18-.38,1.58-.58,.76-1.35,1.39-2.04,2.07-3.96-9.01-9.54-16.83-16.42-23.92-23.45-24.2-53.11-37.56-83.87-49.44-34.21-13.21-70.29-19.3-105.38-29.1Z"/>
  <path class="cls-7" d="M188.71,215.2c-.06,5.33,4.77,7.38,7.36,10.94-39.7,9.09-79.29,18.43-116.46,35.84-30.34,14.21-59.34,29.86-74.93,61.85-.2,.42-.55,.77-.83,1.16-.8-1.21-1.59-2.42-2.39-3.63,6.46-28.95,28.33-44.67,51.62-58.43,41.98-24.8,88.66-36.8,135.62-47.73Z"/>
  <path class="cls-6" d="M360.72,146.91c7.86-15.66,13.91-31.93,16.3-49.4,5.7-4,6.71-3.94,6.32,2.08-1.4,21.43,3.56,42.45,3.56,63.74,0,24.3,1.13,48.63-3.61,72.94,9.44,.18,8.56-9.59,17.06-11.4-3.45,24.39-8.28,47.86-18.63,68.81-7.99,16.17-2.92,21.19,11.21,24.82,2.09,.54,4.19,1.33,4.4,6.54h-23.5c-6.01,5.88-11.76,1.54-17.56-.46-5.94-3.2-11.89-6.4-17.83-9.6-25.58-6.19-31.66-19.23-16.93-36.32,10.6-20.95,12.87-44.5,20.71-66.39,7.62-21.27,12.46-43.53,18.52-65.36Z"/>
  <path class="cls-3" d="M356.25,324.58c5.94-3.18,11.68,1.36,17.56,.46,8.2,5.59,17.43,1.63,26.11,2.82-.01,23.03-.66,46.09,.22,69.1,.47,12.43-2.39,17.46-16.09,17.04-12.26-.37-18.66-2.51-16.71-16.3,.99-6.99,.25-14.24,.16-21.37-.23-18.01,3.81-36.96-11.25-51.75Z"/>
  <path class="cls-19" d="M241.13,245.71c15.32-.98,24.34,9.5,34.05,18.72-.32,18.57-1.44,37.17-.7,55.71,.51,12.75-5.6,14.09-15.92,14.06-10.64-.03-17.51-.78-17.01-14.68,.88-24.57-.17-49.2-.42-73.81Z"/>
  <path class="cls-8" d="M321.49,278.66c-13.41,20.98,5.92,26.71,16.92,36.32-2.87,11.27-1.91,22.84-1.07,34.09,1.07,14.4-7.87,12.37-16.62,12.61-9.32,.26-16.87,.71-16.3-12.97,1.01-24.45,.27-48.97,.27-73.46,5.69,.7,12.07-2,16.81,3.41Z"/>
  <path class="cls-13" d="M465.08,275.43c8.05-8.12,18.49-17.55,28.2-15.65,5.96,1.17,1.89,17.39,2.26,26.83,.57,14.61,.32,29.26,.42,43.88-24.61,9.55-30.92,5.59-30.92-19.43,0-11.88,.02-23.75,.03-35.63Z"/>
  <path class="cls-9" d="M478.46,420.58c-16.68-.81-16.78,8.6-14.94,20.36,1.15,7.34,6.78,20.12-2.17,21.07-9.72,1.03-4.26-12.99-6.98-19.96-2.84-7.28,2.75-20.47-13.46-17.58-.86,.15-2.7-1.82-3.07-3.09-.76-2.59,1.06-4.11,3.43-4.38,22.28-2.5,44.52-5.8,66.86-6.93,9.47-.48,14.46,9.96,9.82,16.36-6.72,9.26-4.05,13.7,2.8,19.54,2.28,1.94,6.2,4.85,3.73,8.02-2.6,3.35-6.91,2.52-10.13-.53-1.98-1.88-3.69-4.06-5.71-5.9-3.93-3.58-7.43-9.86-13.51-7.25-6.2,2.66-1.58,8.64-1.26,13.06,.29,3.87-.23,6.61-4.55,6.82-4.37,.21-5.3-3.34-5.83-6.56-1.77-10.79-3.31-21.62-5.04-33.06Z"/>
  <path class="cls-17" d="M419.42,324.51c6.2-10.67,19.5-11.75,30.58-20.33,0,18.63,0,37.25,0,55.87q-30.58,4.79-30.58-35.54Z"/>
  <path class="cls-14" d="M236.16,410.4c15.24-5.37,29.39,2.71,44.12,3.68,.98,.06,2.57,2.29,2.53,3.46-.05,1.26-1.46,2.98-2.7,3.53-1.34,.6-3.21-.13-4.79,.09-6.45,.93-16.82-6.54-18.66,2.37-2.28,11.06,10.55,4.88,15.8,8.3,2.17,1.41,5.62,1.4,5.07,5.11-.55,3.74-3.94,2.47-6.3,3.32-6.15,2.23-16.94-9.45-18.31,3.84-1.16,11.24,10.99,7.04,17.46,9.16,3.03,1,7.47,.83,6.95,5.14-.69,5.69-5.32,4.01-9.03,3.3-.54-.1-1.06-.31-1.6-.39-26.31-3.76-26.1-3.73-22.4-30.2,.65-4.67,4.78-10.73-2.34-14.47-3.13-.97-4.38-3.68-5.8-6.24Z"/>
  <path class="cls-22" d="M384.82,436.82c1.81-5.13-5.05-14.58,4.1-16.33,9.29-1.78,19.49-4.08,28.99-.83,3.93,1.34,2.99,5.54-.82,7.1-2.39,.98-5.42,.25-8.1,.66-5.33,.8-14.41-2.46-13.34,6.91,.82,7.17,8.73,4.04,13.86,3.91,4.08-.1,9.92-2.64,9.83,4.34-.07,5.46-5.71,3.24-9.1,4.04-5.11,1.2-13.64-3.04-13.67,6.78-.02,10.18,8.57,5.23,13.59,6.4,4.32,1.01,12.07-3.04,12.23,3.67,.19,8.18-8.26,4.77-12.88,4.86-26.93,.52-21.87,7.46-24.69-31.49Z"/>
  <path class="cls-14" d="M344.13,420.25c8.61-.3,6.01,6.26,5.8,10.44-.34,6.92,3.47,8.3,9.03,8.65,5.82,.37,9.36-1.22,9.52-7.95,.1-4.35-1.99-11.52,5.95-10.68,7.35,.78,4.33,7.7,4.44,12.01,.24,9.28-.18,18.58-.64,27.86-.18,3.66-.11,8.5-5.79,7.83-4-.47-4.57-4.15-4.5-7.59,.15-6.94,2.43-14.45-9.55-14.12-11.12,.3-8.11,7.77-8.67,13.73-.37,3.93-.55,8.25-6.02,7.65-4.46-.49-4.01-4.6-3.98-7.71,.1-10.93,.45-21.86,.71-32.79-2.16-4.15,1.4-5.43,3.69-7.35Z"/>
  <path class="cls-18" d="M589.95,389.94c3.46,.16,6.56-.42,7.02,3.45,.33,2.76-1.88,3.55-3.93,4.29-2.06,.74-4.21,1.25-6.19,2.15-4.43,2.03-13.34,.05-11.63,8,2.23,10.42,9.65,1.29,14.66,1.95,3.66,.48,9.08-5.26,10.57,2.05,1.12,5.46-4.85,4.56-8.1,5.8-2.03,.78-4.17,1.31-6.3,1.79-4.77,1.08-8.02,2.55-6.01,8.82,2.03,6.35,5.81,5.07,10.22,3.81,3.67-1.05,7.44-1.79,11.15-2.7,3.43-.84,6.97-1.08,7.58,3.36,.49,3.58-2.97,4.11-5.55,4.53-9.83,1.6-22.9,11.51-28.61,3.45-7.69-10.86-12.24-26.97-10.96-40.13,.96-9.93,17.84-6.17,26.08-10.61Z"/>
  <path class="cls-14" d="M559.86,402.38c-6.46,7.23-13.31,6.75-19.3,8.25-3.49,.87-6.41,2.16-5.89,6.31,.68,5.52,4.5,5.16,8.56,4.09,1.58-.42,3.24-.9,4.83-.8,3.9,.24,9.86-4.73,11.3,1.48,1.83,7.9-6.56,4.71-10.23,6.67-4.32,2.3-12.21,.49-10.63,9.15,1.67,9.1,8.26,4.21,13.04,3.97,2.7-.14,5.36-1.05,8.06-1.42,2.67-.36,6.06-.88,6.99,2.26,1.34,4.54-2.9,5.03-5.82,6.02-2.05,.7-4.26,.93-6.4,1.36q-23.05,4.57-27.74-18.36c-5.77-28.17-.09-33.56,33.22-28.97Z"/>
  <path class="cls-10" d="M625.45,430.85c-3.89,.03-7.75-.2-10.69-3.2-2.2-2.25-5.5-4.42-2.97-8.18,1.78-2.65,4.48-2.49,7.25-1.13,2.87,1.41,5.87,3.57,8.81,3.57,4.45,0,9.08-1.95,9.19-7.39,.11-5.69-4.94-4.66-8.5-5.09-2.16-.26-4.38-.09-6.57-.08-7.63,.06-14.34-1.65-17.06-9.84-2.01-6.06,.65-10.84,5.49-14.23,7.09-4.96,14.85-7.25,23.07-2.87,2.75,1.47,6.06,3.9,3.83,7.66-1.37,2.31-4.31,2.92-7.28,1.55-2.41-1.11-5.08-2.46-7.59-2.37-3.18,.11-7.04,1.29-7.56,5.05-.64,4.62,3.46,4.72,6.64,5.1,2.17,.26,4.38,.23,6.57,.13,10.36-.46,18.99,1.66,19.55,14.27,.42,9.63-9.61,17.12-22.18,17.04Z"/>
  <path class="cls-21" d="M136.01,430.38c-6.49-1.06-14.57-4.08-18.06-13.54-1.11-2.99-1.86-7,1.84-8.64,3.57-1.58,6.31,.5,7.11,4.42,.85,4.16,3.46,6.67,7.24,8.22,3.95,1.63,7.73,1.56,10.22-2.26,2.6-3.99-1.15-5.81-3.51-7.82-2.08-1.78-4.47-3.18-6.61-4.89-5.8-4.63-10.79-9.69-7.71-18.07,1.91-5.18,5.83-7.84,11.3-7.99,8.73-.24,16.37,2.27,21.24,9.97,1.74,2.75,2.76,6.79-.25,9.05-3.19,2.4-5.94,.06-7.93-2.98-1.44-2.21-2.86-4.69-4.92-6.17-2.69-1.93-6.38-3-8.96-.06-3.22,3.67,.31,5.77,2.82,7.73,3.45,2.7,7.29,4.96,10.46,7.94,4.66,4.38,7.33,9.61,4.14,16.18-3.22,6.64-8.36,9.95-18.43,8.91Z"/>
  <path class="cls-10" d="M197.55,437.91c.02,3.82,2.17,7.76-2.58,8.92-3.77,.92-5.47-1.45-6.9-4.98-5.11-12.54-13.3-15.77-24.48-6.79-2.99,2.4-6.25,2.99-8.84,.67-2.69-2.41,.17-4.85,1.67-6.87,7.51-10.04,14.75-20.31,22.79-29.9,6.88-8.2,12.63-5.78,14.33,4.03,2.04,11.78,2.79,23.79,4.01,34.91Z"/>
  <path class="cls-10" d="M236.16,410.4c3.84,.31,5.68,2.48,5.8,6.24-6.05,10.35-12.08,20.71-18.17,31.03-1.71,2.9-3.79,5.43-7.73,4.83-4.55-.69-6.29-3.86-6.85-7.97-1.64-11.89-3.28-23.78-4.86-35.68-.39-2.96-2.69-6.82,2.06-8.07,4.76-1.25,7.17,1.91,7.75,6.17,1.25,9.04,2.18,18.13,3.68,30.97,7.35-11.03,12.84-19.28,18.33-27.52Z"/>
  <path class="cls-22" d="M344.13,420.25c-1.23,2.45-2.46,4.9-3.69,7.34-15.75-4.79-17.72,4.71-18.86,16.96-.68,7.3,3.62,21.29-5.57,20.52-10.92-.92-3-14.23-4.12-21.96-1.1-7.61,5.37-18.31-9.54-19.06-1.96-.1-3.7-2.24-2.57-4.94,1.04-2.48,3.3-2.69,5.41-2.5,12.99,1.14,25.96,2.42,38.94,3.65Z"/>
  <path class="cls-1" d="M508.94,423.4c-2.39,7.63-8.38,7.11-13.61,7.48-5.05,.35-6.97-3.17-6.11-7.42,1.31-6.5,7.17-5.57,11.85-5.89,4.41-.3,6.93,2.19,7.87,5.83Z"/>
  <path class="cls-16" d="M185.25,408.13c-.29,6.67,4.46,12.6-3.39,15.35-1.36,.48-4.92-1.21-5.19-2.41-1.24-5.5,2.47-8.64,8.58-12.94Z"/>
</svg>