<?xml version="1.0" encoding="UTF-8"?>
<svg id="Layer_1" data-name="Layer 1" xmlns="http://www.w3.org/2000/svg" viewBox="0 0 899.23 269.62">
  <defs>
    <style>
      .cls-1 {
        fill: #959fa7;
      }

      .cls-2 {
        fill: #89b53f;
      }

      .cls-3 {
        fill: #99b796;
      }

      .cls-4 {
        fill: #2e4153;
      }

      .cls-5 {
        fill: #a5c76c;
      }

      .cls-6 {
        fill: #283854;
      }

      .cls-7 {
        fill: #4f7535;
      }
    </style>
  </defs>
  <path class="cls-2" d="M462.56,161.47c22.2,0,44.4-.01,66.6-.02,1.09-.01,2.18-.03,3.26-.05,77.92,.05,155.84,.08,233.76,.15,34.66,.03,69.31,.13,103.97,.2v1.39c-1.91-.23-2.87,1.27-4.08,2.26-21.51,17.49-43.1,34.87-64.44,52.56-8.46,7.01-17.91,12.91-25.07,21.44H33.39c24.18-19.85,49.23-38.77,72.24-59.87,15.7-14.39,32.23-18.67,53.2-18.42,88.43,1.05,176.89,.43,265.33,.43,.7,0,1.4-.01,2.1-.02l32.81-.08c1.16,.02,2.32,.03,3.49,.05Zm290.25,61.11c1.35,2.14,2.74,1.85,4.14,.05,3.38-2.5,3.35-5.49,.21-7.76-2.83-2.05-5.64-1.34-7,2.33-1.63,.98-1.63,1.91,.08,2.79-.17,1.86,.66,2.76,2.57,2.58Zm-181.3-.42c.16-2.9-1.93-4.74-3.47-6.54-3.7-4.33-4.54-7.46-.58-12.96,6.93-9.64-.4-22.41-12.37-22.95-6.49-.3-13.02,.18-19.51-.17-4.56-.25-6.14,1.25-6.03,5.83,.27,10.6,.44,21.23-.04,31.82-.3,6.49,3.68,5.47,7.59,5.59,4.21,.13,8.02,.36,7.34-5.84-.23-2.14-1.59-5.41,1.97-6.48,3.25-.98,4.81,1.69,5.72,3.9,3.81,9.29,11.06,9.59,19.38,7.8Zm92.93-29.08c6.42-1.72,12.18-.93,17.82-.85,5.28,.08,4.55-3.23,4.62-6.44,.07-3.37,.32-6.44-4.79-6.29-9.04,.27-18.1,.22-27.15,0-3.9-.09-5.35,1.22-5.28,5.15,.19,11.05,.2,22.11,0,33.17-.08,4.08,1.61,5.08,5.38,5,9.05-.19,18.11-.29,27.15,.03,5.02,.18,4.95-2.62,4.91-6.11-.04-3.59,.44-7.02-5.11-6.6-4.84,.37-9.74,.06-14.61,.01-1.19-.01-2.43-.32-2.47-1.78-.03-1.39,1.04-1.93,2.31-2,1.39-.08,2.78-.14,4.17-.08,4.12,.16,7.52,.45,7.5-5.76-.02-6.57-4.01-5.28-7.8-5.46-1.95-.09-4.16,.76-6.63-2Zm69.52,17.41c-8.17,2.02-14.08,1.01-19.76-2.02-5.79-3.09-5.04,2.85-6.8,5.02-1.8,2.23-2.9,4.83,1.16,6.5,9.54,3.92,19.23,5.49,29.11,1.64,5.9-2.3,9.51-6.77,9.3-13.29-.21-6.42-4.29-9.98-10.24-11.53-3.13-.82-6.38-1.19-9.53-1.91-2.25-.52-4.99-.33-6.36-3.43,4.55-1.26,8.28-1.23,12.33,.96,4.44,2.4,8.52-.97,10.65-3.86,2.1-2.83-1.84-5.24-4.28-6.71-6.72-4.04-14.02-4.55-21.49-2.34-7.83,2.32-11.59,7.14-11.47,14.46,.12,6.93,3.16,9.8,11.91,12.04,4.61,1.18,9.74,.46,15.47,4.47Zm-128.48-17.23c6.89-2.13,12.85-1.06,18.67-1.07,4.82-.01,4.47-2.92,4.3-5.95-.16-2.93,1.35-6.79-4.21-6.67-9.28,.2-18.57,.1-27.86,.02-2.81-.02-4.28,.8-4.25,3.9,.09,11.75,.09,23.5,0,35.25-.03,2.98,1.11,4.07,4.09,4.03,9.52-.11,19.04-.11,28.55,0,3.15,.03,3.72-1.52,3.93-4.25,.43-5.58-.3-9.59-7.55-8.32-2.48,.43-5.14,.37-7.64-.02-2.42-.37-6.86,1.81-6.81-1.95,.05-3.53,4.54-1.88,6.97-1.84,4.34,.07,6.81-.48,6.76-5.85-.05-5.09-2.45-5.57-6.45-5.44-2.43,.08-5.08,.83-8.5-1.82Zm-115.22-13.65c-4.42,0-8.85,.22-13.26-.06-4.44-.28-6.78,.58-6.7,5.87,.07,4.92,1.05,7.62,6.54,6.67,5.45-.94,6.76,1.64,6.46,6.62-.39,6.44,.18,12.94-.17,19.38-.32,5.95,3.77,4.65,6.98,4.59,3.11-.06,7.38,1.61,7.12-4.43-.29-6.68,.23-13.41-.16-20.08-.29-4.93,1.5-6.84,6.3-6.07,5.26,.84,6.87-1.35,6.67-6.53-.16-4.31-1.04-6.4-5.84-6.03-4.63,.36-9.3,.08-13.95,.08Zm-81.2,12.17l1.41-.49c3.6,4.65,7.73,8.99,10.67,14.02,3.63,6.21,5.95,4.2,9.1-.17,3.62-5.02,6.92-10.38,12.27-15.3,0,10.21-.03,19.22,.03,28.22,.01,1.93-.63,4.53,2.66,4.55,3.25,.01,2.76-2.54,2.77-4.51,.05-10.62,.11-21.24-.04-31.86-.03-2.25,1.48-5.48-2.15-6.44-3.12-.82-4.51,1.87-6.03,3.82-4.65,5.98-9.18,12.04-14.09,18.51-5.39-7.14-10.26-13.58-15.11-20.02-1.35-1.8-3.02-3.02-5.34-2.26-2.45,.81-1.61,3.06-1.62,4.74-.08,11.08-.08,22.16,0,33.25,.01,1.85-.91,4.57,2.38,4.77,3.77,.23,3.05-2.71,3.06-4.87,.06-8.65,.03-17.31,.03-25.96Zm-245.84,25.14c.88,1.74-2.87,4.89,1.05,5.56,4.04,.69,2.76-3.26,3.44-5.4,.28-.88,.62-1.76,.72-2.67,.69-6.06,5.4-3.84,8.61-3.83,4.81,.02,2.74,3.65,2.62,6.13-.09,2.03-2.56,5.06,.96,5.69,3.71,.67,3.26-3.05,3.59-5.38,.56-3.93,1.36-7.33,6.66-6.65,1.74,.22,4.17,.35,4.11-2.35-.06-2.38-2.32-1.64-3.8-1.82-1.76-.22-4.14,.34-4.2-2.36-.05-2.44-.67-5.5,1.89-6.94,1.67-.93,4.02-.63,6.07-.91,1.51-.21,2.58-.94,2.87-2.52,.2-1.06-.39-2.16-1.25-2.08-7.65,.7-7.59-3.64-6.16-8.99,.34-1.25,.11-2.29-1.37-2.61-1.27-.27-2.47,.12-2.87,1.31-.51,1.51-.72,3.14-.86,4.73-.55,6.12-5.01,5.63-9.16,5.19-5.22-.54-2.65-4.3-2.48-6.88,.12-1.73,1.58-3.92-1.35-4.33-2.39-.33-3.13,1.82-3.22,3.69-.24,5.04-1.67,8.55-7.82,7.76-1.85-.24-3.14,1.16-3.04,3.02,.1,1.84,1.84,1.58,3.18,1.84,4.61,.91,6.19,5.05,3.45,8.63-1.59,2.08-3.79,1.23-5.76,1.44-1.74,.18-3.44,.5-3.31,2.63,.12,1.99,2.01,1.65,3.24,1.57,5.39-.36,4.59,3.13,4.15,6.52Zm216.43,3.16c-.17-.43-.31-.87-.51-1.28-5.7-12.12-11.27-24.31-17.18-36.33-2.14-4.36-5.78-4.12-8.06,.48-5.62,11.39-11.01,22.9-16.41,34.4-.79,1.69-2.54,3.96,.48,5.13,2.5,.98,3.49-.92,4.57-2.98,1.29-2.46,1.44-7.06,5.26-6.37,9.17,1.67,21.62-6.54,26.72,8.25,.52,1.51,2.24,1.42,3.66,1.22,1.54-.22,1.71-1.26,1.46-2.52Zm-97.78-18.91c0,5.53,.2,11.07-.07,16.59-.19,4.02,1.44,5.17,5.28,5.07,7.89-.22,15.79-.02,23.69-.1,1.89-.02,4.59,.8,4.68-2.49,.11-3.77-2.91-2.87-5.02-2.91-6.04-.11-12.08,0-18.12-.07-1.99-.02-4.09,.42-4.92-2.52-2.22-7.88,.3-11.37,8.54-11.38,2.09,0,4.18,0,6.27-.03,1.45-.02,2.94-.21,3.07-2.01,.15-1.93-1.02-3.01-2.91-3.15-1.85-.13-3.71-.11-5.57-.11-5.02,.02-9.84,1.31-9.76-7.17,.08-8.77,5.4-6.64,10.09-6.77,4.64-.12,9.29,.02,13.94-.06,1.73-.03,4.23,.45,4.09-2.34-.13-2.69-2.61-2.11-4.33-2.12-8.13-.06-16.26,.11-24.39-.08-3.86-.09-4.7,1.72-4.61,5.05,.15,5.53,.04,11.06,.04,16.6Zm-43.83-21.59s0,.02,0,.03c-5.59,0-11.17-.01-16.76,0-1.5,0-2.91,.44-2.92,2.21-.01,1.76,1.38,2.2,2.89,2.23,2.09,.04,4.22,.26,6.28,0,6.17-.79,8.86,1.19,8.38,7.9-.59,8.27-.24,16.62-.07,24.94,.04,2.16-1.46,5.79,2.85,5.65,3.61-.12,2.47-3.32,2.52-5.37,.14-5.77-.01-11.55,.07-17.32,.07-4.83-1.21-10.5,.91-14.25,2.11-3.72,8.16-.88,12.43-1.5,1.64-.23,3.53-.15,3.27-2.51-.25-2.28-2.24-1.97-3.79-1.99-5.35-.05-10.71-.02-16.06-.02Z"/>
  <path class="cls-2" d="M435.72,111.41c7.37-27.27,14.51-54.61,25.07-81.48,3.63,3.38,4.44,7.09,5.47,10.5,9.26,30.7,16.66,61.84,22.96,93.27,1,4.96-.63,7.16-4.63,9.23-6.95,3.62-14.4,5.04-22.07,5.77-.12-.41-.28-.8-.49-1.17,.02-2.75-.1-5.51,.09-8.25,.39-5.55-1.71-11.55,2.92-16.36,.46-.46,.93-.92,1.39-1.38l1.4-1.39c.47-.46,.93-.92,1.4-1.39,.47-.46,.93-.93,1.4-1.39,.46-.46,.93-.92,1.39-1.38,.16-.08,.34-.13,.47-.24,.08-.07,.06-.24,.09-.36-.19,.2-.38,.39-.57,.59-.46,.46-.93,.92-1.4,1.38-.47,.46-.93,.93-1.4,1.39-.47,.46-.93,.92-1.4,1.39s-.93,.92-1.4,1.39c-.46,.46-.93,.92-1.39,1.38-4.42-.66-2.85-4.14-2.87-6.54-.13-15.17-.02-30.34-.12-45.51-.01-1.75,1.07-4.1-2.5-5.84,0,10.93,.1,21.17-.07,31.41-.05,2.83,1.26,6.02-1.42,8.47-.46-.46-.93-.92-1.39-1.38-.47-.46-.93-.92-1.4-1.39-.47-.46-.93-.92-1.4-1.39-.47-.46-.93-.92-1.4-1.39-.47-.46-.93-.93-1.4-1.39-.46-.46-.93-.92-1.39-1.38-.08-.16-.13-.34-.24-.47-.07-.08-.24-.06-.37-.09,.2,.19,.4,.38,.6,.57,.46,.46,.93,.92,1.39,1.38,.47,.46,.93,.93,1.4,1.39,.47,.46,.93,.92,1.4,1.39,.47,.46,.93,.92,1.4,1.39,.47,.46,.93,.92,1.4,1.39,.47,.46,.93,.92,1.4,1.38,.03,2.77,3.42,5.53,.01,8.3-.46-.46-.93-.92-1.39-1.38-.47-.46-.93-.92-1.4-1.39-.47-.46-.93-.92-1.4-1.39-.47-.46-.93-.92-1.4-1.39-.47-.46-.93-.92-1.4-1.39-.47-.46-.93-.92-1.4-1.39-.08-.16-.13-.34-.24-.47-.07-.08-.24-.06-.37-.09,.2,.19,.4,.38,.6,.57,.47,.46,.93,.92,1.4,1.39,.47,.46,.93,.92,1.4,1.39s.93,.92,1.4,1.39c.47,.46,.93,.92,1.4,1.39,.47,.46,.93,.92,1.4,1.39,.47,.46,.93,.92,1.4,1.38,3.03,11.35,.86,22.92,1.46,34.37-.05,.53-.1,1.05-.14,1.58-5.5-.89-11.01-1.77-16.51-2.66-1.93-11.79-6.04-23.15-7.14-35.11Z"/>
  <path class="cls-7" d="M435.72,111.41c1.09,11.96,5.21,23.32,7.13,35.11,.22,3.13-2.03,4.28-4.37,5.32-3.99,1.77-8.24,2.53-12.55,3.05l.04-.55c-.09-4.97-.5-9.97,1.35-14.77,.47-.46,.93-.92,1.4-1.38,.47-.46,.93-.92,1.4-1.39,.47-.46,.93-.93,1.4-1.39,.17-.07,.37-.1,.51-.21,.08-.07,.08-.25,.11-.38-.21,.19-.42,.39-.63,.58-.47,.46-.93,.93-1.4,1.39-.47,.46-.93,.92-1.4,1.39-.46,.46-.93,.92-1.39,1.39-2.45-2.26-1.27-5.19-1.32-7.81-.16-8.8-.06-17.6-.06-26.4-.49,.01-.97,.02-1.46,.04v48.96l-.18,.3,.24,.26c-18.76-2.56-18.81-2.65-14.2-20.97,3.64-14.46,7.71-28.8,12.6-42.9,.72-2.09,1.61-4.12,2.79-7.14,5.78,9.11,5.25,19.29,10,27.52Zm-16.37,12.04c-.17-.06-.36-.21-.5-.18-.59,.16-.62,.44-.06,.7,.13,.06,.38,0,.51-.1,.08-.06,.04-.28,.05-.43Z"/>
  <path class="cls-7" d="M529.29,154.9c-17.91-2.03-18.41-2.76-14.18-19.91,3.53-14.33,7.67-28.49,12.3-42.5,.92-2.79,2.1-5.5,3.69-9.64,5.06,11.04,7.09,21.36,9.6,31.52,2.27,9.18,4.05,18.48,6.6,27.57,1.89,6.72-.64,9.99-6.99,11.32-2.72,.57-5.44,1.17-8.16,1.76,0,0-.13-.64-.13-.64v-48.49c-3.45,2.46-2.23,5.28-2.62,7.89-.67,4.42,1.52,9.16-1.51,13.31-.47-.46-.93-.93-1.4-1.39-.46-.46-.93-.92-1.39-1.38-.07-.17-.12-.36-.23-.49-.07-.08-.24-.07-.37-.1,.21,.19,.42,.37,.62,.56,.46,.46,.93,.92,1.39,1.38,.47,.46,.93,.93,1.4,1.39-.34,9.14,2.72,18.08,1.58,27.26l-.2,.57Zm7.96-19.17c.04-.18,.07-.36,.11-.54-.25,.05-.5,.1-.75,.15,.06,.16,.09,.37,.2,.47,.07,.06,.28-.05,.43-.08Z"/>
  <path class="cls-3" d="M459.36,149.18c.05-.53,.1-1.05,.14-1.58,.84-.02,1.69-.04,2.53-.06,.21,.37,.37,.76,.49,1.17-.61,4.26-.6,8.52,.04,12.77-1.16-.02-2.32-.03-3.49-.05,.1-4.08,.19-8.16,.29-12.25Z"/>
  <path class="cls-1" d="M532.42,161.41c-1.09,.02-2.18,.03-3.26,.05,.54-2.17,.71-4.35,.13-6.55,0,0,.2-.57,.2-.57,.84,.02,1.69,.03,2.53,.05,0,0,.13,.64,.13,.64,.09,2.13,.18,4.25,.27,6.38Z"/>
  <path class="cls-5" d="M426.26,161.5c-.7,0-1.4,.01-2.1,.02,.12-2.21,.24-4.42,.36-6.62,0,0-.24-.26-.24-.26,0,0,.18-.3,.18-.3,.5,0,1,0,1.5,0l-.04,.55c.11,2.2,.22,4.41,.32,6.61Z"/>
  <path class="cls-6" d="M571.51,222.17c-8.32,1.79-15.57,1.49-19.38-7.8-.91-2.21-2.47-4.87-5.72-3.9-3.57,1.07-2.21,4.34-1.97,6.48,.68,6.19-3.14,5.97-7.34,5.84-3.9-.12-7.88,.9-7.59-5.59,.48-10.59,.31-21.22,.04-31.82-.12-4.58,1.46-6.08,6.03-5.83,6.49,.35,13.02-.12,19.51,.17,11.96,.55,19.3,13.32,12.37,22.95-3.96,5.51-3.12,8.63,.58,12.96,1.54,1.8,3.64,3.64,3.47,6.54Zm-22.38-23.14c2.99-.09,6.76,.24,6.42-4.09-.31-3.98-4.08-3.58-7.04-3.73-2.78-.14-4.94,.11-4.96,3.86-.02,4.31,2.71,4.04,5.58,3.96Z"/>
  <path class="cls-4" d="M664.44,193.09c2.47,2.75,4.68,1.9,6.63,2,3.79,.18,7.78-1.11,7.8,5.46,.02,6.21-3.38,5.92-7.5,5.76-1.39-.06-2.78,0-4.17,.08-1.26,.07-2.34,.61-2.31,2,.03,1.46,1.27,1.77,2.47,1.78,4.87,.05,9.77,.35,14.61-.01,5.55-.42,5.08,3.01,5.11,6.6,.04,3.49,.11,6.29-4.91,6.11-9.04-.32-18.1-.22-27.15-.03-3.77,.08-5.46-.92-5.38-5,.21-11.05,.19-22.11,0-33.17-.07-3.93,1.38-5.24,5.28-5.15,9.05,.21,18.11,.26,27.15,0,5.11-.15,4.86,2.91,4.79,6.29-.06,3.21,.66,6.52-4.62,6.44-5.64-.09-11.4-.87-17.82,.85Z"/>
  <path class="cls-6" d="M733.96,210.5c-5.73-4.02-10.86-3.29-15.47-4.47-8.75-2.24-11.79-5.12-11.91-12.04-.13-7.32,3.63-12.14,11.47-14.46,7.47-2.22,14.77-1.7,21.49,2.34,2.44,1.47,6.38,3.88,4.28,6.71-2.14,2.88-6.21,6.26-10.65,3.86-4.05-2.19-7.78-2.22-12.33-.96,1.37,3.1,4.11,2.92,6.36,3.43,3.16,.72,6.4,1.09,9.53,1.91,5.95,1.56,10.03,5.11,10.24,11.53,.21,6.52-3.39,10.99-9.3,13.29-9.88,3.85-19.57,2.28-29.11-1.64-4.07-1.67-2.97-4.27-1.16-6.5,1.75-2.17,1.01-8.11,6.8-5.02,5.68,3.03,11.59,4.04,19.76,2.02Z"/>
  <path class="cls-6" d="M605.48,193.28c3.42,2.65,6.07,1.9,8.5,1.82,4-.13,6.39,.34,6.45,5.44,.05,5.37-2.42,5.92-6.76,5.85-2.43-.04-6.92-1.69-6.97,1.84-.05,3.76,4.39,1.58,6.81,1.95,2.49,.38,5.16,.45,7.64,.02,7.24-1.26,7.97,2.74,7.55,8.32-.21,2.73-.77,4.28-3.93,4.25-9.52-.1-19.04-.1-28.55,0-2.98,.03-4.11-1.05-4.09-4.03,.1-11.75,.1-23.5,0-35.25-.02-3.1,1.44-3.92,4.25-3.9,9.29,.08,18.57,.17,27.86-.02,5.56-.12,4.05,3.74,4.21,6.67,.17,3.03,.52,5.94-4.3,5.95-5.82,.01-11.78-1.06-18.67,1.07Z"/>
  <path class="cls-6" d="M490.26,179.62c4.65,0,9.33,.28,13.95-.08,4.8-.37,5.68,1.73,5.84,6.03,.19,5.18-1.41,7.37-6.67,6.53-4.81-.76-6.59,1.14-6.3,6.07,.39,6.67-.13,13.4,.16,20.08,.26,6.04-4.02,4.37-7.12,4.43-3.21,.06-7.3,1.36-6.98-4.59,.35-6.45-.22-12.94,.17-19.38,.3-4.98-1-7.56-6.46-6.62-5.49,.95-6.47-1.75-6.54-6.67-.07-5.3,2.26-6.15,6.7-5.87,4.4,.28,8.84,.06,13.26,.06Z"/>
  <path class="cls-4" d="M409.05,191.79c0,8.65,.04,17.31-.03,25.96-.02,2.16,.7,5.09-3.06,4.87-3.3-.2-2.37-2.92-2.38-4.77-.08-11.08-.08-22.16,0-33.25,.01-1.68-.84-3.93,1.62-4.74,2.32-.76,3.99,.46,5.34,2.26,4.85,6.45,9.71,12.88,15.11,20.02,4.91-6.47,9.45-12.53,14.09-18.51,1.52-1.95,2.91-4.64,6.03-3.82,3.63,.96,2.12,4.19,2.15,6.44,.16,10.62,.09,21.24,.04,31.86,0,1.97,.48,4.53-2.77,4.51-3.3-.01-2.65-2.62-2.66-4.55-.06-9-.03-18-.03-28.22-5.36,4.92-8.65,10.27-12.27,15.3-3.15,4.38-5.47,6.38-9.1,.17-2.94-5.03-7.07-9.37-10.67-14.02l-1.41,.49Z"/>
  <path class="cls-4" d="M163.21,216.93c.43-3.4,1.23-6.89-4.15-6.52-1.23,.08-3.12,.42-3.24-1.57-.13-2.13,1.57-2.44,3.31-2.63,1.97-.21,4.17,.64,5.76-1.44,2.74-3.57,1.17-7.72-3.45-8.63-1.34-.26-3.08,0-3.18-1.84-.1-1.86,1.19-3.25,3.04-3.02,6.15,.79,7.58-2.73,7.82-7.76,.09-1.86,.83-4.02,3.22-3.69,2.93,.41,1.46,2.6,1.35,4.33-.17,2.58-2.75,6.33,2.48,6.88,4.16,.43,8.61,.93,9.16-5.19,.14-1.59,.35-3.23,.86-4.73,.4-1.19,1.6-1.59,2.87-1.31,1.47,.32,1.7,1.36,1.37,2.61-1.44,5.35-1.49,9.69,6.16,8.99,.87-.08,1.45,1.01,1.25,2.08-.29,1.58-1.37,2.32-2.87,2.52-2.04,.28-4.4-.02-6.07,.91-2.57,1.44-1.94,4.5-1.89,6.94,.05,2.7,2.44,2.14,4.2,2.36,1.48,.19,3.74-.56,3.8,1.82,.06,2.69-2.36,2.57-4.11,2.35-5.3-.68-6.1,2.72-6.66,6.65-.33,2.33,.12,6.05-3.59,5.38-3.53-.64-1.05-3.67-.96-5.69,.11-2.47,2.18-6.11-2.62-6.13-3.21-.02-7.92-2.23-8.61,3.83-.1,.9-.44,1.79-.72,2.67-.69,2.13,.6,6.09-3.44,5.4-3.92-.67-.17-3.82-1.05-5.56Zm14.23-10.52c4.19,1.38,4.6-2.86,5.19-6.53,.76-4.73-2.97-3.43-5.49-3.77-4.94-.66-6.53,1.99-6.86,6.35-.36,4.76,3.08,3.48,7.16,3.95Z"/>
  <path class="cls-4" d="M379.64,220.1c.25,1.26,.07,2.31-1.47,2.52-1.42,.2-3.14,.29-3.66-1.22-5.1-14.79-17.55-6.58-26.72-8.25-3.81-.7-3.97,3.91-5.26,6.37-1.08,2.06-2.07,3.95-4.57,2.98-3.01-1.18-1.27-3.44-.48-5.13,5.4-11.5,10.79-23.01,16.41-34.4,2.27-4.61,5.91-4.84,8.06-.48,5.91,12.02,11.48,24.21,17.18,36.33,.2,.42,.34,.86,.51,1.29Zm-21.69-33.7c-1.64,3.49-2.81,5.7-3.74,8.02-1.61,4-6.52,8.71-4.32,11.67,2.67,3.58,9.02,.91,13.75,1.35,2.85,.26,3.86-.7,2.45-3.58-2.63-5.37-5.06-10.84-8.14-17.46Z"/>
  <path class="cls-4" d="M281.86,201.19c0-5.53,.11-11.07-.04-16.6-.09-3.33,.75-5.14,4.61-5.05,8.13,.19,16.26,.02,24.39,.08,1.72,.01,4.2-.57,4.33,2.12,.14,2.8-2.36,2.31-4.09,2.34-4.64,.08-9.29-.06-13.94,.06-4.69,.13-10.01-2-10.09,6.77-.08,8.49,4.74,7.19,9.76,7.17,1.86,0,3.72-.02,5.57,.11,1.89,.13,3.05,1.21,2.91,3.15-.14,1.8-1.63,1.99-3.07,2.01-2.09,.03-4.18,.02-6.27,.03-8.24,.01-10.75,3.51-8.54,11.38,.83,2.94,2.93,2.5,4.92,2.52,6.04,.07,12.08-.04,18.12,.07,2.11,.04,5.13-.86,5.02,2.91-.09,3.29-2.79,2.47-4.68,2.49-7.9,.08-15.8-.11-23.69,.1-3.84,.1-5.47-1.05-5.28-5.07,.27-5.52,.07-11.06,.07-16.59Z"/>
  <path class="cls-4" d="M238.03,179.6c5.35,0,10.71-.03,16.06,.02,1.56,.02,3.55-.29,3.79,1.99,.26,2.36-1.64,2.27-3.27,2.51-4.27,.61-10.33-2.23-12.43,1.5-2.12,3.74-.84,9.42-.91,14.25-.08,5.77,.07,11.55-.07,17.32-.05,2.06,1.09,5.25-2.52,5.37-4.31,.15-2.81-3.49-2.85-5.65-.17-8.31-.52-16.66,.07-24.94,.48-6.71-2.2-8.69-8.38-7.9-2.06,.26-4.18,.04-6.28,0-1.51-.03-2.9-.47-2.89-2.23,.01-1.76,1.42-2.2,2.92-2.21,5.59-.02,11.17,0,16.76,0,0,0,0-.02,0-.03Z"/>
  <path class="cls-4" d="M750.16,217.21c1.36-3.67,4.18-4.38,7-2.33,3.13,2.27,3.17,5.26-.21,7.76-.94-1.57-2.49-1.47-4.01-1.42-.28-1.78,.16-4.05-2.78-4.01Z"/>
  <path class="cls-7" d="M750.16,217.21c2.94-.04,2.5,2.23,2.78,4.01l-.28,.25c-.8-.49-1.61-.97-2.41-1.46-1.72-.88-1.72-1.81-.09-2.8Z"/>
  <path class="cls-7" d="M752.94,221.22c1.52-.04,3.07-.15,4.01,1.42-1.4,1.8-2.79,2.09-4.14-.05-.11-.36-.16-.74-.15-1.12l.28-.25Z"/>
  <path class="cls-4" d="M752.66,221.47c0,.38,.04,.76,.15,1.12-1.91,.18-2.74-.72-2.57-2.58,.81,.49,1.61,.98,2.42,1.46Z"/>
  <path class="cls-7" d="M462.03,147.54c-.84,.02-1.69,.04-2.53,.06-.6-11.45,1.57-23.02-1.46-34.37h.01c3.41-2.79,.01-5.55-.01-8.32h.01c2.68-2.46,1.37-5.65,1.42-8.48,.17-10.24,.07-20.48,.07-31.41,3.57,1.74,2.49,4.1,2.5,5.84,.1,15.17,0,30.34,.12,45.51,.02,2.4-1.55,5.88,2.87,6.54h.01c-4.62,4.82-2.53,10.82-2.92,16.37-.19,2.74-.07,5.5-.09,8.25Z"/>
  <path class="cls-7" d="M449.66,96.6c-.2-.19-.4-.38-.6-.57,.13,.03,.3,.01,.37,.09,.12,.12,.17,.31,.24,.47,0,0-.01,.01-.01,.01Z"/>
  <path class="cls-7" d="M452.46,99.37c-.47-.46-.93-.93-1.4-1.39,0,0,.01-.01,.01-.01,.47,.46,.93,.93,1.4,1.39,0,0-.01,.01-.01,.01Z"/>
  <path class="cls-7" d="M453.85,100.76c-.47-.46-.93-.92-1.4-1.39,0,0,.01-.01,.01-.01,.47,.46,.93,.92,1.4,1.39h-.01Z"/>
  <path class="cls-7" d="M455.25,102.14c-.47-.46-.93-.92-1.4-1.39,0,0,.01-.01,.01-.01,.47,.46,.93,.92,1.4,1.39,0,0-.01,.01-.01,.01Z"/>
  <path class="cls-7" d="M455.27,102.13c.47,.46,.93,.92,1.4,1.39,0,0-.01,.01-.01,.01-.47-.46-.93-.92-1.4-1.39,0,0,.01-.01,.01-.01Z"/>
  <path class="cls-7" d="M449.66,104.91c-.2-.19-.4-.38-.6-.57,.13,.03,.3,.01,.37,.09,.12,.12,.17,.31,.24,.47,0,0-.01,.01-.01,.01Z"/>
  <path class="cls-7" d="M458.04,104.91c-.47-.46-.93-.92-1.4-1.38,0,0,.01-.01,.01-.01,.46,.46,.93,.92,1.39,1.38,0,0-.01,.01-.01,.01Z"/>
  <path class="cls-7" d="M451.06,106.3c-.47-.46-.93-.92-1.4-1.39,0,0,.01-.01,.01-.01,.47,.46,.93,.92,1.4,1.39,0,0-.01,.01-.01,.01Z"/>
  <path class="cls-7" d="M452.46,107.69c-.47-.46-.93-.92-1.4-1.39,0,0,.01-.01,.01-.01,.47,.46,.93,.92,1.4,1.39,0,0-.01,.01-.01,.01Z"/>
  <path class="cls-7" d="M453.85,109.07c-.47-.46-.93-.92-1.4-1.39,0,0,.01-.01,.01-.01,.47,.46,.93,.92,1.4,1.39,0,0-.01,.01-.01,.01Z"/>
  <path class="cls-7" d="M455.25,110.46c-.47-.46-.93-.92-1.4-1.39,0,0,.01-.01,.01-.01,.47,.46,.93,.92,1.4,1.39,0,0-.01,.01-.01,.01Z"/>
  <path class="cls-7" d="M455.27,110.45c.47,.46,.93,.92,1.4,1.39,0,0-.01,.01-.01,.01-.47-.46-.93-.92-1.4-1.39,0,0,.01-.01,.01-.01Z"/>
  <path class="cls-7" d="M458.04,113.23c-.47-.46-.93-.92-1.4-1.38,0,0,.01-.01,.01-.01,.46,.46,.93,.92,1.39,1.38,0,0-.01,.01-.01,.01Z"/>
  <path class="cls-7" d="M472.01,115.99c.19-.2,.38-.39,.57-.59-.03,.12-.01,.29-.09,.36-.13,.11-.31,.16-.47,.24,0,0-.01-.01-.01-.01Z"/>
  <path class="cls-7" d="M469.22,118.76c.47-.46,.93-.93,1.4-1.39,0,0,.01,.01,.01,.01-.47,.46-.93,.93-1.4,1.39,0,0-.01-.01-.01-.01Z"/>
  <path class="cls-7" d="M472.03,116c-.46,.46-.93,.92-1.39,1.38,0,0-.01-.01-.01-.01,.47-.46,.93-.92,1.4-1.38,0,0,.01,.01,.01,.01Z"/>
  <path class="cls-7" d="M467.82,120.15c.47-.46,.93-.92,1.4-1.39,0,0,.01,.01,.01,.01-.47,.46-.93,.92-1.4,1.39,0,0-.01-.01-.01-.01Z"/>
  <path class="cls-7" d="M466.42,121.54c.47-.46,.93-.92,1.4-1.39,0,0,.01,.01,.01,.01-.47,.46-.93,.92-1.4,1.39,0,0-.01-.01-.01-.01Z"/>
  <path class="cls-7" d="M465.03,122.92c.46-.46,.93-.92,1.39-1.38,0,0,.01,.01,.01,.01-.46,.46-.93,.92-1.39,1.38,0,0-.01-.01-.01-.01Z"/>
  <path class="cls-7" d="M449.68,96.58c.46,.46,.93,.92,1.39,1.38,0,0-.01,.01-.01,.01-.47-.46-.93-.92-1.39-1.38,0,0,.01-.01,.01-.01Z"/>
  <path class="cls-2" d="M425.98,154.34c-.5,0-1,0-1.5,0,0-16.32,0-32.64,0-48.96,.49-.01,.97-.02,1.46-.04,0,8.8-.1,17.61,.06,26.4,.05,2.61-1.13,5.55,1.32,7.81h.01c-1.85,4.81-1.44,9.81-1.35,14.78Z"/>
  <path class="cls-2" d="M419.35,123.45c-.01,.15,.03,.37-.05,.43-.13,.09-.38,.16-.51,.1-.55-.26-.53-.54,.06-.7,.14-.04,.33,.11,.5,.18Z"/>
  <path class="cls-2" d="M430.11,136.79c.47-.46,.93-.93,1.4-1.39h.01c-.47,.48-.93,.94-1.4,1.4,0,0-.01-.01-.01-.01Z"/>
  <path class="cls-2" d="M430.12,136.8c-.47,.46-.93,.92-1.4,1.39,0,0-.01-.01-.01-.01,.47-.46,.93-.92,1.4-1.39,0,0,.01,.01,.01,.01Z"/>
  <path class="cls-2" d="M427.31,139.56c.46-.46,.93-.92,1.39-1.39,0,0,.01,.01,.01,.01-.47,.46-.93,.92-1.4,1.38,0,0-.01-.01-.01-.01Z"/>
  <path class="cls-2" d="M431.5,135.4c.21-.19,.42-.39,.63-.58-.03,.13-.02,.31-.11,.38-.14,.11-.33,.15-.51,.21,0,0-.01-.01-.01-.01Z"/>
  <path class="cls-4" d="M532.02,154.39c-.84-.02-1.69-.03-2.53-.05,1.14-9.18-1.92-18.12-1.58-27.26,0,0-.02,.02-.02,.02,3.03-4.15,.84-8.89,1.51-13.31,.4-2.61-.83-5.43,2.62-7.89v48.49Z"/>
  <path class="cls-4" d="M537.25,135.73c-.15,.03-.37,.14-.43,.08-.12-.1-.14-.31-.2-.47,.25-.05,.5-.1,.75-.15-.04,.18-.07,.36-.11,.54Z"/>
  <path class="cls-4" d="M525.09,124.33l1.39,1.38s.02-.02,.02-.02l-1.39-1.38s-.02,.02-.02,.02Z"/>
  <path class="cls-4" d="M525.12,124.3c-.21-.19-.42-.37-.62-.56,.13,.03,.3,.02,.37,.1,.11,.13,.16,.32,.23,.49,0,0,.02-.02,.02-.02Z"/>
  <path class="cls-4" d="M526.49,125.71c.47,.46,.93,.93,1.4,1.39,0,0,.02-.02,.02-.02-.47-.46-.93-.93-1.4-1.39,0,0-.02,.02-.02,.02Z"/>
  <path class="cls-2" d="M549.13,199.03c-2.87,.08-5.6,.35-5.58-3.96,.02-3.75,2.18-4.01,4.96-3.86,2.97,.15,6.73-.24,7.04,3.73,.34,4.33-3.43,4-6.42,4.09Z"/>
  <path class="cls-2" d="M177.45,206.41c-4.09-.47-7.52,.81-7.16-3.95,.33-4.36,1.92-7.01,6.86-6.35,2.52,.34,6.25-.96,5.49,3.77-.59,3.68-1,7.91-5.19,6.53Z"/>
  <path class="cls-2" d="M357.96,186.4c3.07,6.63,5.51,12.09,8.14,17.46,1.41,2.88,.4,3.84-2.45,3.58-4.73-.44-11.08,2.23-13.75-1.35-2.2-2.96,2.72-7.67,4.32-11.67,.93-2.31,2.1-4.53,3.74-8.02Z"/>
</svg>